<mxfile host="app.diagrams.net" modified="2022-01-07T13:41:56.345Z" agent="5.0 (X11)" etag="Va1q3VLLYsrGV1ZAE8cd" version="16.2.2" type="github">
  <diagram id="ZMPBVdDReR-dd0KNUXKv" name="Page-1">
    <mxGraphModel dx="2926" dy="755" grid="1" gridSize="10" guides="1" tooltips="1" connect="1" arrows="1" fold="1" page="1" pageScale="1" pageWidth="1600" pageHeight="900" math="0" shadow="0">
      <root>
        <mxCell id="0" />
        <mxCell id="1" parent="0" />
        <mxCell id="JOfPQrPtgQj5ozjjMgrj-1" value="Mietstation" style="swimlane;fontStyle=1;align=center;verticalAlign=top;childLayout=stackLayout;horizontal=1;startSize=26;horizontalStack=0;resizeParent=1;resizeParentMax=0;resizeLast=0;collapsible=1;marginBottom=0;" parent="1" vertex="1">
          <mxGeometry x="-80" y="167" width="330" height="242" as="geometry" />
        </mxCell>
        <mxCell id="JOfPQrPtgQj5ozjjMgrj-76" value="+ id: int" style="text;strokeColor=none;fillColor=none;align=left;verticalAlign=top;spacingLeft=4;spacingRight=4;overflow=hidden;rotatable=0;points=[[0,0.5],[1,0.5]];portConstraint=eastwest;" parent="JOfPQrPtgQj5ozjjMgrj-1" vertex="1">
          <mxGeometry y="26" width="330" height="26" as="geometry" />
        </mxCell>
        <mxCell id="JOfPQrPtgQj5ozjjMgrj-2" value="+ typ: String" style="text;strokeColor=none;fillColor=none;align=left;verticalAlign=top;spacingLeft=4;spacingRight=4;overflow=hidden;rotatable=0;points=[[0,0.5],[1,0.5]];portConstraint=eastwest;" parent="JOfPQrPtgQj5ozjjMgrj-1" vertex="1">
          <mxGeometry y="52" width="330" height="26" as="geometry" />
        </mxCell>
        <mxCell id="JOfPQrPtgQj5ozjjMgrj-73" value="+ größe: int" style="text;strokeColor=none;fillColor=none;align=left;verticalAlign=top;spacingLeft=4;spacingRight=4;overflow=hidden;rotatable=0;points=[[0,0.5],[1,0.5]];portConstraint=eastwest;" parent="JOfPQrPtgQj5ozjjMgrj-1" vertex="1">
          <mxGeometry y="78" width="330" height="26" as="geometry" />
        </mxCell>
        <mxCell id="JOfPQrPtgQj5ozjjMgrj-74" value="+ lage: String" style="text;strokeColor=none;fillColor=none;align=left;verticalAlign=top;spacingLeft=4;spacingRight=4;overflow=hidden;rotatable=0;points=[[0,0.5],[1,0.5]];portConstraint=eastwest;" parent="JOfPQrPtgQj5ozjjMgrj-1" vertex="1">
          <mxGeometry y="104" width="330" height="26" as="geometry" />
        </mxCell>
        <mxCell id="JOfPQrPtgQj5ozjjMgrj-77" value="+ stellplätze: int" style="text;strokeColor=none;fillColor=none;align=left;verticalAlign=top;spacingLeft=4;spacingRight=4;overflow=hidden;rotatable=0;points=[[0,0.5],[1,0.5]];portConstraint=eastwest;" parent="JOfPQrPtgQj5ozjjMgrj-1" vertex="1">
          <mxGeometry y="130" width="330" height="26" as="geometry" />
        </mxCell>
        <mxCell id="keo7LRHrqXR6IUppqkBO-17" value="+ personalplaene: Personalplan[]" style="text;strokeColor=none;fillColor=none;align=left;verticalAlign=top;spacingLeft=4;spacingRight=4;overflow=hidden;rotatable=0;points=[[0,0.5],[1,0.5]];portConstraint=eastwest;fontSize=12;" vertex="1" parent="JOfPQrPtgQj5ozjjMgrj-1">
          <mxGeometry y="156" width="330" height="26" as="geometry" />
        </mxCell>
        <mxCell id="JOfPQrPtgQj5ozjjMgrj-3" value="" style="line;strokeWidth=1;fillColor=none;align=left;verticalAlign=middle;spacingTop=-1;spacingLeft=3;spacingRight=3;rotatable=0;labelPosition=right;points=[];portConstraint=eastwest;" parent="JOfPQrPtgQj5ozjjMgrj-1" vertex="1">
          <mxGeometry y="182" width="330" height="8" as="geometry" />
        </mxCell>
        <mxCell id="JOfPQrPtgQj5ozjjMgrj-243" value="+ entferneMietwagen(mietwagen: Mietwagen)" style="text;strokeColor=none;fillColor=none;align=left;verticalAlign=top;spacingLeft=4;spacingRight=4;overflow=hidden;rotatable=0;points=[[0,0.5],[1,0.5]];portConstraint=eastwest;" parent="JOfPQrPtgQj5ozjjMgrj-1" vertex="1">
          <mxGeometry y="190" width="330" height="26" as="geometry" />
        </mxCell>
        <mxCell id="JOfPQrPtgQj5ozjjMgrj-244" value="+ fügeMietwagenHinzu(mietwagen: Mietwagen)" style="text;strokeColor=none;fillColor=none;align=left;verticalAlign=top;spacingLeft=4;spacingRight=4;overflow=hidden;rotatable=0;points=[[0,0.5],[1,0.5]];portConstraint=eastwest;" parent="JOfPQrPtgQj5ozjjMgrj-1" vertex="1">
          <mxGeometry y="216" width="330" height="26" as="geometry" />
        </mxCell>
        <mxCell id="JOfPQrPtgQj5ozjjMgrj-5" value="Mietwagen" style="swimlane;fontStyle=1;align=center;verticalAlign=top;childLayout=stackLayout;horizontal=1;startSize=26;horizontalStack=0;resizeParent=1;resizeParentMax=0;resizeLast=0;collapsible=1;marginBottom=0;" parent="1" vertex="1">
          <mxGeometry x="1070" y="598" width="200" height="112" as="geometry" />
        </mxCell>
        <mxCell id="JOfPQrPtgQj5ozjjMgrj-6" value="+ typ: Typ" style="text;strokeColor=none;fillColor=none;align=left;verticalAlign=top;spacingLeft=4;spacingRight=4;overflow=hidden;rotatable=0;points=[[0,0.5],[1,0.5]];portConstraint=eastwest;" parent="JOfPQrPtgQj5ozjjMgrj-5" vertex="1">
          <mxGeometry y="26" width="200" height="26" as="geometry" />
        </mxCell>
        <mxCell id="JOfPQrPtgQj5ozjjMgrj-115" value="+ ausstattungen: Ausstattung[]" style="text;strokeColor=none;fillColor=none;align=left;verticalAlign=top;spacingLeft=4;spacingRight=4;overflow=hidden;rotatable=0;points=[[0,0.5],[1,0.5]];portConstraint=eastwest;" parent="JOfPQrPtgQj5ozjjMgrj-5" vertex="1">
          <mxGeometry y="52" width="200" height="26" as="geometry" />
        </mxCell>
        <mxCell id="JOfPQrPtgQj5ozjjMgrj-118" value="+ versicherung: Versicherung" style="text;strokeColor=none;fillColor=none;align=left;verticalAlign=top;spacingLeft=4;spacingRight=4;overflow=hidden;rotatable=0;points=[[0,0.5],[1,0.5]];portConstraint=eastwest;" parent="JOfPQrPtgQj5ozjjMgrj-5" vertex="1">
          <mxGeometry y="78" width="200" height="26" as="geometry" />
        </mxCell>
        <mxCell id="JOfPQrPtgQj5ozjjMgrj-7" value="" style="line;strokeWidth=1;fillColor=none;align=left;verticalAlign=middle;spacingTop=-1;spacingLeft=3;spacingRight=3;rotatable=0;labelPosition=right;points=[];portConstraint=eastwest;" parent="JOfPQrPtgQj5ozjjMgrj-5" vertex="1">
          <mxGeometry y="104" width="200" height="8" as="geometry" />
        </mxCell>
        <mxCell id="JOfPQrPtgQj5ozjjMgrj-29" value="Unternehmenszentrale" style="swimlane;fontStyle=1;align=center;verticalAlign=top;childLayout=stackLayout;horizontal=1;startSize=26;horizontalStack=0;resizeParent=1;resizeParentMax=0;resizeLast=0;collapsible=1;marginBottom=0;" parent="1" vertex="1">
          <mxGeometry x="-270" y="1080" width="350" height="216" as="geometry" />
        </mxCell>
        <mxCell id="JOfPQrPtgQj5ozjjMgrj-75" value="+ id: int" style="text;strokeColor=none;fillColor=none;align=left;verticalAlign=top;spacingLeft=4;spacingRight=4;overflow=hidden;rotatable=0;points=[[0,0.5],[1,0.5]];portConstraint=eastwest;" parent="JOfPQrPtgQj5ozjjMgrj-29" vertex="1">
          <mxGeometry y="26" width="350" height="26" as="geometry" />
        </mxCell>
        <mxCell id="JOfPQrPtgQj5ozjjMgrj-182" value="+ buchungssystem: Buchungssystem" style="text;strokeColor=none;fillColor=none;align=left;verticalAlign=top;spacingLeft=4;spacingRight=4;overflow=hidden;rotatable=0;points=[[0,0.5],[1,0.5]];portConstraint=eastwest;" parent="JOfPQrPtgQj5ozjjMgrj-29" vertex="1">
          <mxGeometry y="52" width="350" height="26" as="geometry" />
        </mxCell>
        <mxCell id="JOfPQrPtgQj5ozjjMgrj-181" value="+ reportingsystem: Reportingsystem" style="text;strokeColor=none;fillColor=none;align=left;verticalAlign=top;spacingLeft=4;spacingRight=4;overflow=hidden;rotatable=0;points=[[0,0.5],[1,0.5]];portConstraint=eastwest;" parent="JOfPQrPtgQj5ozjjMgrj-29" vertex="1">
          <mxGeometry y="78" width="350" height="26" as="geometry" />
        </mxCell>
        <mxCell id="JOfPQrPtgQj5ozjjMgrj-184" value="+ dashboard: Dashboard" style="text;strokeColor=none;fillColor=none;align=left;verticalAlign=top;spacingLeft=4;spacingRight=4;overflow=hidden;rotatable=0;points=[[0,0.5],[1,0.5]];portConstraint=eastwest;" parent="JOfPQrPtgQj5ozjjMgrj-29" vertex="1">
          <mxGeometry y="104" width="350" height="26" as="geometry" />
        </mxCell>
        <mxCell id="JOfPQrPtgQj5ozjjMgrj-183" value="+ performanceberichte: Performancebericht[]" style="text;strokeColor=none;fillColor=none;align=left;verticalAlign=top;spacingLeft=4;spacingRight=4;overflow=hidden;rotatable=0;points=[[0,0.5],[1,0.5]];portConstraint=eastwest;" parent="JOfPQrPtgQj5ozjjMgrj-29" vertex="1">
          <mxGeometry y="130" width="350" height="26" as="geometry" />
        </mxCell>
        <mxCell id="JOfPQrPtgQj5ozjjMgrj-31" value="" style="line;strokeWidth=1;fillColor=none;align=left;verticalAlign=middle;spacingTop=-1;spacingLeft=3;spacingRight=3;rotatable=0;labelPosition=right;points=[];portConstraint=eastwest;" parent="JOfPQrPtgQj5ozjjMgrj-29" vertex="1">
          <mxGeometry y="156" width="350" height="8" as="geometry" />
        </mxCell>
        <mxCell id="JOfPQrPtgQj5ozjjMgrj-228" value="+ verwalteMietstationen()" style="text;strokeColor=none;fillColor=none;align=left;verticalAlign=top;spacingLeft=4;spacingRight=4;overflow=hidden;rotatable=0;points=[[0,0.5],[1,0.5]];portConstraint=eastwest;" parent="JOfPQrPtgQj5ozjjMgrj-29" vertex="1">
          <mxGeometry y="164" width="350" height="26" as="geometry" />
        </mxCell>
        <mxCell id="JOfPQrPtgQj5ozjjMgrj-101" value="+ erstellePerformancebericht(): Performancebericht" style="text;strokeColor=none;fillColor=none;align=left;verticalAlign=top;spacingLeft=4;spacingRight=4;overflow=hidden;rotatable=0;points=[[0,0.5],[1,0.5]];portConstraint=eastwest;" parent="JOfPQrPtgQj5ozjjMgrj-29" vertex="1">
          <mxGeometry y="190" width="350" height="26" as="geometry" />
        </mxCell>
        <mxCell id="JOfPQrPtgQj5ozjjMgrj-33" value="Performancebericht" style="swimlane;fontStyle=1;align=center;verticalAlign=top;childLayout=stackLayout;horizontal=1;startSize=26;horizontalStack=0;resizeParent=1;resizeParentMax=0;resizeLast=0;collapsible=1;marginBottom=0;" parent="1" vertex="1">
          <mxGeometry x="255" y="1330" width="160" height="60" as="geometry" />
        </mxCell>
        <mxCell id="JOfPQrPtgQj5ozjjMgrj-34" value="+ datum: Date" style="text;strokeColor=none;fillColor=none;align=left;verticalAlign=top;spacingLeft=4;spacingRight=4;overflow=hidden;rotatable=0;points=[[0,0.5],[1,0.5]];portConstraint=eastwest;" parent="JOfPQrPtgQj5ozjjMgrj-33" vertex="1">
          <mxGeometry y="26" width="160" height="26" as="geometry" />
        </mxCell>
        <mxCell id="JOfPQrPtgQj5ozjjMgrj-35" value="" style="line;strokeWidth=1;fillColor=none;align=left;verticalAlign=middle;spacingTop=-1;spacingLeft=3;spacingRight=3;rotatable=0;labelPosition=right;points=[];portConstraint=eastwest;" parent="JOfPQrPtgQj5ozjjMgrj-33" vertex="1">
          <mxGeometry y="52" width="160" height="8" as="geometry" />
        </mxCell>
        <mxCell id="JOfPQrPtgQj5ozjjMgrj-37" value="Dashboard" style="swimlane;fontStyle=1;align=center;verticalAlign=top;childLayout=stackLayout;horizontal=1;startSize=26;horizontalStack=0;resizeParent=1;resizeParentMax=0;resizeLast=0;collapsible=1;marginBottom=0;" parent="1" vertex="1">
          <mxGeometry x="-280" y="1330" width="440" height="60" as="geometry" />
        </mxCell>
        <mxCell id="JOfPQrPtgQj5ozjjMgrj-39" value="" style="line;strokeWidth=1;fillColor=none;align=left;verticalAlign=middle;spacingTop=-1;spacingLeft=3;spacingRight=3;rotatable=0;labelPosition=right;points=[];portConstraint=eastwest;" parent="JOfPQrPtgQj5ozjjMgrj-37" vertex="1">
          <mxGeometry y="26" width="440" height="8" as="geometry" />
        </mxCell>
        <mxCell id="JOfPQrPtgQj5ozjjMgrj-40" value="+ zeigePerformancebericht(performancebericht: Performancebericht)" style="text;strokeColor=none;fillColor=none;align=left;verticalAlign=top;spacingLeft=4;spacingRight=4;overflow=hidden;rotatable=0;points=[[0,0.5],[1,0.5]];portConstraint=eastwest;" parent="JOfPQrPtgQj5ozjjMgrj-37" vertex="1">
          <mxGeometry y="34" width="440" height="26" as="geometry" />
        </mxCell>
        <mxCell id="JOfPQrPtgQj5ozjjMgrj-41" value="Mitarbeiter" style="swimlane;fontStyle=1;align=center;verticalAlign=top;childLayout=stackLayout;horizontal=1;startSize=26;horizontalStack=0;resizeParent=1;resizeParentMax=0;resizeLast=0;collapsible=1;marginBottom=0;" parent="1" vertex="1">
          <mxGeometry x="-1250" y="219" width="180" height="138" as="geometry" />
        </mxCell>
        <mxCell id="JOfPQrPtgQj5ozjjMgrj-206" value="+ personalnummer: int" style="text;strokeColor=none;fillColor=none;align=left;verticalAlign=top;spacingLeft=4;spacingRight=4;overflow=hidden;rotatable=0;points=[[0,0.5],[1,0.5]];portConstraint=eastwest;" parent="JOfPQrPtgQj5ozjjMgrj-41" vertex="1">
          <mxGeometry y="26" width="180" height="26" as="geometry" />
        </mxCell>
        <mxCell id="keo7LRHrqXR6IUppqkBO-5" value="+ name: String" style="text;strokeColor=none;fillColor=none;align=left;verticalAlign=top;spacingLeft=4;spacingRight=4;overflow=hidden;rotatable=0;points=[[0,0.5],[1,0.5]];portConstraint=eastwest;fontSize=12;" vertex="1" parent="JOfPQrPtgQj5ozjjMgrj-41">
          <mxGeometry y="52" width="180" height="26" as="geometry" />
        </mxCell>
        <mxCell id="keo7LRHrqXR6IUppqkBO-6" value="+ adresse: String" style="text;strokeColor=none;fillColor=none;align=left;verticalAlign=top;spacingLeft=4;spacingRight=4;overflow=hidden;rotatable=0;points=[[0,0.5],[1,0.5]];portConstraint=eastwest;fontSize=12;" vertex="1" parent="JOfPQrPtgQj5ozjjMgrj-41">
          <mxGeometry y="78" width="180" height="26" as="geometry" />
        </mxCell>
        <mxCell id="JOfPQrPtgQj5ozjjMgrj-42" value="+ rolle: Rolle" style="text;strokeColor=none;fillColor=none;align=left;verticalAlign=top;spacingLeft=4;spacingRight=4;overflow=hidden;rotatable=0;points=[[0,0.5],[1,0.5]];portConstraint=eastwest;" parent="JOfPQrPtgQj5ozjjMgrj-41" vertex="1">
          <mxGeometry y="104" width="180" height="26" as="geometry" />
        </mxCell>
        <mxCell id="JOfPQrPtgQj5ozjjMgrj-43" value="" style="line;strokeWidth=1;fillColor=none;align=left;verticalAlign=middle;spacingTop=-1;spacingLeft=3;spacingRight=3;rotatable=0;labelPosition=right;points=[];portConstraint=eastwest;" parent="JOfPQrPtgQj5ozjjMgrj-41" vertex="1">
          <mxGeometry y="130" width="180" height="8" as="geometry" />
        </mxCell>
        <mxCell id="JOfPQrPtgQj5ozjjMgrj-45" value="&lt;&lt;enumeration&gt;&gt;&#xa;Rolle" style="swimlane;fontStyle=1;align=center;verticalAlign=top;childLayout=stackLayout;horizontal=1;startSize=40;horizontalStack=0;resizeParent=1;resizeParentMax=0;resizeLast=0;collapsible=1;marginBottom=0;" parent="1" vertex="1">
          <mxGeometry x="-800" y="578" width="160" height="152" as="geometry" />
        </mxCell>
        <mxCell id="JOfPQrPtgQj5ozjjMgrj-46" value="mietstationleiter" style="text;strokeColor=none;fillColor=none;align=left;verticalAlign=top;spacingLeft=4;spacingRight=4;overflow=hidden;rotatable=0;points=[[0,0.5],[1,0.5]];portConstraint=eastwest;" parent="JOfPQrPtgQj5ozjjMgrj-45" vertex="1">
          <mxGeometry y="40" width="160" height="26" as="geometry" />
        </mxCell>
        <mxCell id="keo7LRHrqXR6IUppqkBO-7" value="mechaniker" style="text;strokeColor=none;fillColor=none;align=left;verticalAlign=top;spacingLeft=4;spacingRight=4;overflow=hidden;rotatable=0;points=[[0,0.5],[1,0.5]];portConstraint=eastwest;fontSize=12;" vertex="1" parent="JOfPQrPtgQj5ozjjMgrj-45">
          <mxGeometry y="66" width="160" height="26" as="geometry" />
        </mxCell>
        <mxCell id="keo7LRHrqXR6IUppqkBO-8" value="kundenbetreuer" style="text;strokeColor=none;fillColor=none;align=left;verticalAlign=top;spacingLeft=4;spacingRight=4;overflow=hidden;rotatable=0;points=[[0,0.5],[1,0.5]];portConstraint=eastwest;fontSize=12;" vertex="1" parent="JOfPQrPtgQj5ozjjMgrj-45">
          <mxGeometry y="92" width="160" height="26" as="geometry" />
        </mxCell>
        <mxCell id="keo7LRHrqXR6IUppqkBO-9" value="servicemitarbeiter" style="text;strokeColor=none;fillColor=none;align=left;verticalAlign=top;spacingLeft=4;spacingRight=4;overflow=hidden;rotatable=0;points=[[0,0.5],[1,0.5]];portConstraint=eastwest;fontSize=12;" vertex="1" parent="JOfPQrPtgQj5ozjjMgrj-45">
          <mxGeometry y="118" width="160" height="26" as="geometry" />
        </mxCell>
        <mxCell id="JOfPQrPtgQj5ozjjMgrj-47" value="" style="line;strokeWidth=1;fillColor=none;align=left;verticalAlign=middle;spacingTop=-1;spacingLeft=3;spacingRight=3;rotatable=0;labelPosition=right;points=[];portConstraint=eastwest;" parent="JOfPQrPtgQj5ozjjMgrj-45" vertex="1">
          <mxGeometry y="144" width="160" height="8" as="geometry" />
        </mxCell>
        <mxCell id="JOfPQrPtgQj5ozjjMgrj-53" value="Vermietung" style="swimlane;fontStyle=1;align=center;verticalAlign=top;childLayout=stackLayout;horizontal=1;startSize=26;horizontalStack=0;resizeParent=1;resizeParentMax=0;resizeLast=0;collapsible=1;marginBottom=0;" parent="1" vertex="1">
          <mxGeometry x="1050" y="200" width="290" height="268" as="geometry" />
        </mxCell>
        <mxCell id="JOfPQrPtgQj5ozjjMgrj-54" value="+ kunde: Kunde" style="text;strokeColor=none;fillColor=none;align=left;verticalAlign=top;spacingLeft=4;spacingRight=4;overflow=hidden;rotatable=0;points=[[0,0.5],[1,0.5]];portConstraint=eastwest;" parent="JOfPQrPtgQj5ozjjMgrj-53" vertex="1">
          <mxGeometry y="26" width="290" height="26" as="geometry" />
        </mxCell>
        <mxCell id="JOfPQrPtgQj5ozjjMgrj-144" value="+ rücknahmeprotokoll: Rücknahmeprotokoll" style="text;strokeColor=none;fillColor=none;align=left;verticalAlign=top;spacingLeft=4;spacingRight=4;overflow=hidden;rotatable=0;points=[[0,0.5],[1,0.5]];portConstraint=eastwest;" parent="JOfPQrPtgQj5ozjjMgrj-53" vertex="1">
          <mxGeometry y="52" width="290" height="26" as="geometry" />
        </mxCell>
        <mxCell id="JOfPQrPtgQj5ozjjMgrj-91" value="+ leihmietstation: Mietstation" style="text;strokeColor=none;fillColor=none;align=left;verticalAlign=top;spacingLeft=4;spacingRight=4;overflow=hidden;rotatable=0;points=[[0,0.5],[1,0.5]];portConstraint=eastwest;" parent="JOfPQrPtgQj5ozjjMgrj-53" vertex="1">
          <mxGeometry y="78" width="290" height="26" as="geometry" />
        </mxCell>
        <mxCell id="JOfPQrPtgQj5ozjjMgrj-100" value="+ rückgabemietstation: Mietstation" style="text;strokeColor=none;fillColor=none;align=left;verticalAlign=top;spacingLeft=4;spacingRight=4;overflow=hidden;rotatable=0;points=[[0,0.5],[1,0.5]];portConstraint=eastwest;" parent="JOfPQrPtgQj5ozjjMgrj-53" vertex="1">
          <mxGeometry y="104" width="290" height="26" as="geometry" />
        </mxCell>
        <mxCell id="JOfPQrPtgQj5ozjjMgrj-92" value="+ mietwagen: Mietwagen" style="text;strokeColor=none;fillColor=none;align=left;verticalAlign=top;spacingLeft=4;spacingRight=4;overflow=hidden;rotatable=0;points=[[0,0.5],[1,0.5]];portConstraint=eastwest;" parent="JOfPQrPtgQj5ozjjMgrj-53" vertex="1">
          <mxGeometry y="130" width="290" height="26" as="geometry" />
        </mxCell>
        <mxCell id="JOfPQrPtgQj5ozjjMgrj-107" value="+ tarif: Tarif" style="text;strokeColor=none;fillColor=none;align=left;verticalAlign=top;spacingLeft=4;spacingRight=4;overflow=hidden;rotatable=0;points=[[0,0.5],[1,0.5]];portConstraint=eastwest;" parent="JOfPQrPtgQj5ozjjMgrj-53" vertex="1">
          <mxGeometry y="156" width="290" height="26" as="geometry" />
        </mxCell>
        <mxCell id="JOfPQrPtgQj5ozjjMgrj-94" value="+ leihdatum: Date" style="text;strokeColor=none;fillColor=none;align=left;verticalAlign=top;spacingLeft=4;spacingRight=4;overflow=hidden;rotatable=0;points=[[0,0.5],[1,0.5]];portConstraint=eastwest;" parent="JOfPQrPtgQj5ozjjMgrj-53" vertex="1">
          <mxGeometry y="182" width="290" height="26" as="geometry" />
        </mxCell>
        <mxCell id="JOfPQrPtgQj5ozjjMgrj-95" value="+ rückgabedatum: Date" style="text;strokeColor=none;fillColor=none;align=left;verticalAlign=top;spacingLeft=4;spacingRight=4;overflow=hidden;rotatable=0;points=[[0,0.5],[1,0.5]];portConstraint=eastwest;" parent="JOfPQrPtgQj5ozjjMgrj-53" vertex="1">
          <mxGeometry y="208" width="290" height="26" as="geometry" />
        </mxCell>
        <mxCell id="JOfPQrPtgQj5ozjjMgrj-119" value="+ freikilometer: int" style="text;strokeColor=none;fillColor=none;align=left;verticalAlign=top;spacingLeft=4;spacingRight=4;overflow=hidden;rotatable=0;points=[[0,0.5],[1,0.5]];portConstraint=eastwest;" parent="JOfPQrPtgQj5ozjjMgrj-53" vertex="1">
          <mxGeometry y="234" width="290" height="26" as="geometry" />
        </mxCell>
        <mxCell id="JOfPQrPtgQj5ozjjMgrj-55" value="" style="line;strokeWidth=1;fillColor=none;align=left;verticalAlign=middle;spacingTop=-1;spacingLeft=3;spacingRight=3;rotatable=0;labelPosition=right;points=[];portConstraint=eastwest;" parent="JOfPQrPtgQj5ozjjMgrj-53" vertex="1">
          <mxGeometry y="260" width="290" height="8" as="geometry" />
        </mxCell>
        <mxCell id="JOfPQrPtgQj5ozjjMgrj-110" value="1" style="endArrow=open;html=1;endSize=12;startArrow=diamondThin;startSize=14;startFill=0;edgeStyle=orthogonalEdgeStyle;align=left;verticalAlign=bottom;rounded=0;exitX=0;exitY=0.5;exitDx=0;exitDy=0;" parent="1" source="JOfPQrPtgQj5ozjjMgrj-92" target="JOfPQrPtgQj5ozjjMgrj-5" edge="1">
          <mxGeometry x="-1" y="3" relative="1" as="geometry">
            <mxPoint x="990" y="420" as="sourcePoint" />
            <mxPoint x="1150" y="420" as="targetPoint" />
            <Array as="points">
              <mxPoint x="1020" y="343" />
              <mxPoint x="1020" y="667" />
            </Array>
          </mxGeometry>
        </mxCell>
        <mxCell id="JOfPQrPtgQj5ozjjMgrj-125" value="Reservierung" style="swimlane;fontStyle=1;align=center;verticalAlign=top;childLayout=stackLayout;horizontal=1;startSize=26;horizontalStack=0;resizeParent=1;resizeParentMax=0;resizeLast=0;collapsible=1;marginBottom=0;" parent="1" vertex="1">
          <mxGeometry x="1400" y="840" width="200" height="112" as="geometry" />
        </mxCell>
        <mxCell id="JOfPQrPtgQj5ozjjMgrj-129" value="+ mietwagen: Mietwagen" style="text;strokeColor=none;fillColor=none;align=left;verticalAlign=top;spacingLeft=4;spacingRight=4;overflow=hidden;rotatable=0;points=[[0,0.5],[1,0.5]];portConstraint=eastwest;" parent="JOfPQrPtgQj5ozjjMgrj-125" vertex="1">
          <mxGeometry y="26" width="200" height="26" as="geometry" />
        </mxCell>
        <mxCell id="JOfPQrPtgQj5ozjjMgrj-131" value="+ rückgabedatum: Date" style="text;strokeColor=none;fillColor=none;align=left;verticalAlign=top;spacingLeft=4;spacingRight=4;overflow=hidden;rotatable=0;points=[[0,0.5],[1,0.5]];portConstraint=eastwest;" parent="JOfPQrPtgQj5ozjjMgrj-125" vertex="1">
          <mxGeometry y="52" width="200" height="26" as="geometry" />
        </mxCell>
        <mxCell id="JOfPQrPtgQj5ozjjMgrj-130" value="+ leihdatum: Date" style="text;strokeColor=none;fillColor=none;align=left;verticalAlign=top;spacingLeft=4;spacingRight=4;overflow=hidden;rotatable=0;points=[[0,0.5],[1,0.5]];portConstraint=eastwest;" parent="JOfPQrPtgQj5ozjjMgrj-125" vertex="1">
          <mxGeometry y="78" width="200" height="26" as="geometry" />
        </mxCell>
        <mxCell id="JOfPQrPtgQj5ozjjMgrj-127" value="" style="line;strokeWidth=1;fillColor=none;align=left;verticalAlign=middle;spacingTop=-1;spacingLeft=3;spacingRight=3;rotatable=0;labelPosition=right;points=[];portConstraint=eastwest;" parent="JOfPQrPtgQj5ozjjMgrj-125" vertex="1">
          <mxGeometry y="104" width="200" height="8" as="geometry" />
        </mxCell>
        <mxCell id="JOfPQrPtgQj5ozjjMgrj-135" value="1" style="endArrow=open;html=1;endSize=12;startArrow=diamondThin;startSize=14;startFill=0;edgeStyle=orthogonalEdgeStyle;align=left;verticalAlign=bottom;rounded=0;exitX=0;exitY=0.5;exitDx=0;exitDy=0;" parent="1" source="JOfPQrPtgQj5ozjjMgrj-129" target="JOfPQrPtgQj5ozjjMgrj-5" edge="1">
          <mxGeometry x="-1" y="3" relative="1" as="geometry">
            <mxPoint x="870" y="240" as="sourcePoint" />
            <mxPoint x="1030" y="240" as="targetPoint" />
            <Array as="points">
              <mxPoint x="1170" y="879" />
            </Array>
          </mxGeometry>
        </mxCell>
        <mxCell id="JOfPQrPtgQj5ozjjMgrj-140" value="Rücknahmeprotokoll" style="swimlane;fontStyle=1;align=center;verticalAlign=top;childLayout=stackLayout;horizontal=1;startSize=26;horizontalStack=0;resizeParent=1;resizeParentMax=0;resizeLast=0;collapsible=1;marginBottom=0;" parent="1" vertex="1">
          <mxGeometry x="1090" y="40" width="180" height="86" as="geometry" />
        </mxCell>
        <mxCell id="JOfPQrPtgQj5ozjjMgrj-141" value="+ anforderungen: String[]" style="text;strokeColor=none;fillColor=none;align=left;verticalAlign=top;spacingLeft=4;spacingRight=4;overflow=hidden;rotatable=0;points=[[0,0.5],[1,0.5]];portConstraint=eastwest;" parent="JOfPQrPtgQj5ozjjMgrj-140" vertex="1">
          <mxGeometry y="26" width="180" height="26" as="geometry" />
        </mxCell>
        <mxCell id="JOfPQrPtgQj5ozjjMgrj-142" value="" style="line;strokeWidth=1;fillColor=none;align=left;verticalAlign=middle;spacingTop=-1;spacingLeft=3;spacingRight=3;rotatable=0;labelPosition=right;points=[];portConstraint=eastwest;" parent="JOfPQrPtgQj5ozjjMgrj-140" vertex="1">
          <mxGeometry y="52" width="180" height="8" as="geometry" />
        </mxCell>
        <mxCell id="JOfPQrPtgQj5ozjjMgrj-143" value="+ abarbeiten()" style="text;strokeColor=none;fillColor=none;align=left;verticalAlign=top;spacingLeft=4;spacingRight=4;overflow=hidden;rotatable=0;points=[[0,0.5],[1,0.5]];portConstraint=eastwest;" parent="JOfPQrPtgQj5ozjjMgrj-140" vertex="1">
          <mxGeometry y="60" width="180" height="26" as="geometry" />
        </mxCell>
        <mxCell id="JOfPQrPtgQj5ozjjMgrj-146" value="1" style="endArrow=open;html=1;endSize=12;startArrow=diamondThin;startSize=14;startFill=0;edgeStyle=orthogonalEdgeStyle;align=left;verticalAlign=bottom;rounded=0;exitX=0;exitY=0.5;exitDx=0;exitDy=0;" parent="1" source="JOfPQrPtgQj5ozjjMgrj-144" target="JOfPQrPtgQj5ozjjMgrj-140" edge="1">
          <mxGeometry x="-1" y="3" relative="1" as="geometry">
            <mxPoint x="830" y="80" as="sourcePoint" />
            <mxPoint x="990" y="80" as="targetPoint" />
            <Array as="points">
              <mxPoint x="1000" y="265" />
              <mxPoint x="1000" y="83" />
            </Array>
          </mxGeometry>
        </mxCell>
        <mxCell id="JOfPQrPtgQj5ozjjMgrj-147" value="&lt;&lt;interface&gt;&gt;&#xa;Checkliste" style="swimlane;fontStyle=1;align=center;verticalAlign=top;childLayout=stackLayout;horizontal=1;startSize=40;horizontalStack=0;resizeParent=1;resizeParentMax=0;resizeLast=0;collapsible=1;marginBottom=0;" parent="1" vertex="1">
          <mxGeometry x="1330" y="33" width="180" height="100" as="geometry" />
        </mxCell>
        <mxCell id="JOfPQrPtgQj5ozjjMgrj-148" value="+ anforderungen: String[]" style="text;strokeColor=none;fillColor=none;align=left;verticalAlign=top;spacingLeft=4;spacingRight=4;overflow=hidden;rotatable=0;points=[[0,0.5],[1,0.5]];portConstraint=eastwest;" parent="JOfPQrPtgQj5ozjjMgrj-147" vertex="1">
          <mxGeometry y="40" width="180" height="26" as="geometry" />
        </mxCell>
        <mxCell id="JOfPQrPtgQj5ozjjMgrj-149" value="" style="line;strokeWidth=1;fillColor=none;align=left;verticalAlign=middle;spacingTop=-1;spacingLeft=3;spacingRight=3;rotatable=0;labelPosition=right;points=[];portConstraint=eastwest;" parent="JOfPQrPtgQj5ozjjMgrj-147" vertex="1">
          <mxGeometry y="66" width="180" height="8" as="geometry" />
        </mxCell>
        <mxCell id="JOfPQrPtgQj5ozjjMgrj-150" value="+ abarbeiten()" style="text;strokeColor=none;fillColor=none;align=left;verticalAlign=top;spacingLeft=4;spacingRight=4;overflow=hidden;rotatable=0;points=[[0,0.5],[1,0.5]];portConstraint=eastwest;" parent="JOfPQrPtgQj5ozjjMgrj-147" vertex="1">
          <mxGeometry y="74" width="180" height="26" as="geometry" />
        </mxCell>
        <mxCell id="JOfPQrPtgQj5ozjjMgrj-151" value="" style="endArrow=block;endFill=0;endSize=12;html=1;rounded=0;dashed=1;" parent="1" source="JOfPQrPtgQj5ozjjMgrj-140" target="JOfPQrPtgQj5ozjjMgrj-147" edge="1">
          <mxGeometry width="160" relative="1" as="geometry">
            <mxPoint x="760" y="70" as="sourcePoint" />
            <mxPoint x="920" y="70" as="targetPoint" />
          </mxGeometry>
        </mxCell>
        <mxCell id="JOfPQrPtgQj5ozjjMgrj-156" value="Leistungskennziffern" style="swimlane;fontStyle=1;align=center;verticalAlign=top;childLayout=stackLayout;horizontal=1;startSize=28;horizontalStack=0;resizeParent=1;resizeParentMax=0;resizeLast=0;collapsible=1;marginBottom=0;" parent="1" vertex="1">
          <mxGeometry x="706.25" y="484" width="180" height="114" as="geometry" />
        </mxCell>
        <mxCell id="JOfPQrPtgQj5ozjjMgrj-233" value="+ mietstation: Mietstation" style="text;strokeColor=none;fillColor=none;align=left;verticalAlign=top;spacingLeft=4;spacingRight=4;overflow=hidden;rotatable=0;points=[[0,0.5],[1,0.5]];portConstraint=eastwest;" parent="JOfPQrPtgQj5ozjjMgrj-156" vertex="1">
          <mxGeometry y="28" width="180" height="26" as="geometry" />
        </mxCell>
        <mxCell id="JOfPQrPtgQj5ozjjMgrj-162" value="+ umsatz: float" style="text;strokeColor=none;fillColor=none;align=left;verticalAlign=top;spacingLeft=4;spacingRight=4;overflow=hidden;rotatable=0;points=[[0,0.5],[1,0.5]];portConstraint=eastwest;" parent="JOfPQrPtgQj5ozjjMgrj-156" vertex="1">
          <mxGeometry y="54" width="180" height="26" as="geometry" />
        </mxCell>
        <mxCell id="JOfPQrPtgQj5ozjjMgrj-176" value="+ gewinn: float" style="text;strokeColor=none;fillColor=none;align=left;verticalAlign=top;spacingLeft=4;spacingRight=4;overflow=hidden;rotatable=0;points=[[0,0.5],[1,0.5]];portConstraint=eastwest;" parent="JOfPQrPtgQj5ozjjMgrj-156" vertex="1">
          <mxGeometry y="80" width="180" height="26" as="geometry" />
        </mxCell>
        <mxCell id="JOfPQrPtgQj5ozjjMgrj-158" value="" style="line;strokeWidth=1;fillColor=none;align=left;verticalAlign=middle;spacingTop=-1;spacingLeft=3;spacingRight=3;rotatable=0;labelPosition=right;points=[];portConstraint=eastwest;" parent="JOfPQrPtgQj5ozjjMgrj-156" vertex="1">
          <mxGeometry y="106" width="180" height="8" as="geometry" />
        </mxCell>
        <mxCell id="JOfPQrPtgQj5ozjjMgrj-180" value="" style="endArrow=open;endFill=1;endSize=12;html=1;rounded=0;" parent="1" source="JOfPQrPtgQj5ozjjMgrj-37" target="JOfPQrPtgQj5ozjjMgrj-33" edge="1">
          <mxGeometry width="160" relative="1" as="geometry">
            <mxPoint x="530" y="1220" as="sourcePoint" />
            <mxPoint x="690" y="1220" as="targetPoint" />
          </mxGeometry>
        </mxCell>
        <mxCell id="JOfPQrPtgQj5ozjjMgrj-196" value="Personalplan" style="swimlane;fontStyle=1;align=center;verticalAlign=top;childLayout=stackLayout;horizontal=1;startSize=26;horizontalStack=0;resizeParent=1;resizeParentMax=0;resizeLast=0;collapsible=1;marginBottom=0;" parent="1" vertex="1">
          <mxGeometry x="-920" y="180" width="400" height="216" as="geometry" />
        </mxCell>
        <mxCell id="JOfPQrPtgQj5ozjjMgrj-217" value="+ mitarbeiter: Mitarbeiter[]" style="text;strokeColor=none;fillColor=none;align=left;verticalAlign=top;spacingLeft=4;spacingRight=4;overflow=hidden;rotatable=0;points=[[0,0.5],[1,0.5]];portConstraint=eastwest;" parent="JOfPQrPtgQj5ozjjMgrj-196" vertex="1">
          <mxGeometry y="26" width="400" height="26" as="geometry" />
        </mxCell>
        <mxCell id="keo7LRHrqXR6IUppqkBO-4" value="+ rollen: Rolle[]" style="text;strokeColor=none;fillColor=none;align=left;verticalAlign=top;spacingLeft=4;spacingRight=4;overflow=hidden;rotatable=0;points=[[0,0.5],[1,0.5]];portConstraint=eastwest;fontSize=12;" vertex="1" parent="JOfPQrPtgQj5ozjjMgrj-196">
          <mxGeometry y="52" width="400" height="26" as="geometry" />
        </mxCell>
        <mxCell id="keo7LRHrqXR6IUppqkBO-2" value="+ startDatum: Datum" style="text;strokeColor=none;fillColor=none;align=left;verticalAlign=top;spacingLeft=4;spacingRight=4;overflow=hidden;rotatable=0;points=[[0,0.5],[1,0.5]];portConstraint=eastwest;fontSize=12;" vertex="1" parent="JOfPQrPtgQj5ozjjMgrj-196">
          <mxGeometry y="78" width="400" height="26" as="geometry" />
        </mxCell>
        <mxCell id="keo7LRHrqXR6IUppqkBO-3" value="+ endDatum: Datum" style="text;strokeColor=none;fillColor=none;align=left;verticalAlign=top;spacingLeft=4;spacingRight=4;overflow=hidden;rotatable=0;points=[[0,0.5],[1,0.5]];portConstraint=eastwest;fontSize=12;" vertex="1" parent="JOfPQrPtgQj5ozjjMgrj-196">
          <mxGeometry y="104" width="400" height="26" as="geometry" />
        </mxCell>
        <mxCell id="JOfPQrPtgQj5ozjjMgrj-198" value="" style="line;strokeWidth=1;fillColor=none;align=left;verticalAlign=middle;spacingTop=-1;spacingLeft=3;spacingRight=3;rotatable=0;labelPosition=right;points=[];portConstraint=eastwest;" parent="JOfPQrPtgQj5ozjjMgrj-196" vertex="1">
          <mxGeometry y="130" width="400" height="8" as="geometry" />
        </mxCell>
        <mxCell id="JOfPQrPtgQj5ozjjMgrj-218" value="+ Personalplan(mietstation: Mietstation)" style="text;strokeColor=none;fillColor=none;align=left;verticalAlign=top;spacingLeft=4;spacingRight=4;overflow=hidden;rotatable=0;points=[[0,0.5],[1,0.5]];portConstraint=eastwest;" parent="JOfPQrPtgQj5ozjjMgrj-196" vertex="1">
          <mxGeometry y="138" width="400" height="26" as="geometry" />
        </mxCell>
        <mxCell id="JOfPQrPtgQj5ozjjMgrj-199" value="+ zuweisen(mitarbeiter: Mitarbeiter)" style="text;strokeColor=none;fillColor=none;align=left;verticalAlign=top;spacingLeft=4;spacingRight=4;overflow=hidden;rotatable=0;points=[[0,0.5],[1,0.5]];portConstraint=eastwest;" parent="JOfPQrPtgQj5ozjjMgrj-196" vertex="1">
          <mxGeometry y="164" width="400" height="26" as="geometry" />
        </mxCell>
        <mxCell id="JOfPQrPtgQj5ozjjMgrj-219" value="+ entfernen(mitarbeiter: Mitarbeiter)" style="text;strokeColor=none;fillColor=none;align=left;verticalAlign=top;spacingLeft=4;spacingRight=4;overflow=hidden;rotatable=0;points=[[0,0.5],[1,0.5]];portConstraint=eastwest;" parent="JOfPQrPtgQj5ozjjMgrj-196" vertex="1">
          <mxGeometry y="190" width="400" height="26" as="geometry" />
        </mxCell>
        <mxCell id="JOfPQrPtgQj5ozjjMgrj-239" value="Verschiebung" style="swimlane;fontStyle=1;align=center;verticalAlign=top;childLayout=stackLayout;horizontal=1;startSize=26;horizontalStack=0;resizeParent=1;resizeParentMax=0;resizeLast=0;collapsible=1;marginBottom=0;" parent="1" vertex="1">
          <mxGeometry x="1120" y="903" width="160" height="86" as="geometry" />
        </mxCell>
        <mxCell id="JOfPQrPtgQj5ozjjMgrj-240" value="+ " style="text;strokeColor=none;fillColor=none;align=left;verticalAlign=top;spacingLeft=4;spacingRight=4;overflow=hidden;rotatable=0;points=[[0,0.5],[1,0.5]];portConstraint=eastwest;" parent="JOfPQrPtgQj5ozjjMgrj-239" vertex="1">
          <mxGeometry y="26" width="160" height="26" as="geometry" />
        </mxCell>
        <mxCell id="JOfPQrPtgQj5ozjjMgrj-241" value="" style="line;strokeWidth=1;fillColor=none;align=left;verticalAlign=middle;spacingTop=-1;spacingLeft=3;spacingRight=3;rotatable=0;labelPosition=right;points=[];portConstraint=eastwest;" parent="JOfPQrPtgQj5ozjjMgrj-239" vertex="1">
          <mxGeometry y="52" width="160" height="8" as="geometry" />
        </mxCell>
        <mxCell id="JOfPQrPtgQj5ozjjMgrj-242" value="+ method(type): type" style="text;strokeColor=none;fillColor=none;align=left;verticalAlign=top;spacingLeft=4;spacingRight=4;overflow=hidden;rotatable=0;points=[[0,0.5],[1,0.5]];portConstraint=eastwest;" parent="JOfPQrPtgQj5ozjjMgrj-239" vertex="1">
          <mxGeometry y="60" width="160" height="26" as="geometry" />
        </mxCell>
        <mxCell id="keo7LRHrqXR6IUppqkBO-13" value="" style="endArrow=open;endFill=1;endSize=12;html=1;rounded=0;fontSize=12;" edge="1" parent="1" source="JOfPQrPtgQj5ozjjMgrj-41" target="JOfPQrPtgQj5ozjjMgrj-45">
          <mxGeometry width="160" relative="1" as="geometry">
            <mxPoint x="-560" y="620" as="sourcePoint" />
            <mxPoint x="-400" y="620" as="targetPoint" />
          </mxGeometry>
        </mxCell>
        <mxCell id="keo7LRHrqXR6IUppqkBO-15" value="" style="endArrow=open;endFill=1;endSize=12;html=1;rounded=0;fontSize=12;" edge="1" parent="1" source="JOfPQrPtgQj5ozjjMgrj-196" target="JOfPQrPtgQj5ozjjMgrj-41">
          <mxGeometry width="160" relative="1" as="geometry">
            <mxPoint x="-820" y="560" as="sourcePoint" />
            <mxPoint x="-660" y="560" as="targetPoint" />
          </mxGeometry>
        </mxCell>
        <mxCell id="keo7LRHrqXR6IUppqkBO-16" value="" style="endArrow=open;endFill=1;endSize=12;html=1;rounded=0;fontSize=12;" edge="1" parent="1" source="JOfPQrPtgQj5ozjjMgrj-196" target="JOfPQrPtgQj5ozjjMgrj-45">
          <mxGeometry width="160" relative="1" as="geometry">
            <mxPoint x="-330" y="340" as="sourcePoint" />
            <mxPoint x="-170" y="340" as="targetPoint" />
          </mxGeometry>
        </mxCell>
        <mxCell id="keo7LRHrqXR6IUppqkBO-18" value="" style="endArrow=open;html=1;endSize=12;startArrow=diamondThin;startSize=14;startFill=0;edgeStyle=orthogonalEdgeStyle;rounded=0;fontSize=12;" edge="1" parent="1" source="JOfPQrPtgQj5ozjjMgrj-1" target="JOfPQrPtgQj5ozjjMgrj-196">
          <mxGeometry relative="1" as="geometry">
            <mxPoint x="-240" y="410" as="sourcePoint" />
            <mxPoint x="-360" y="470" as="targetPoint" />
          </mxGeometry>
        </mxCell>
        <mxCell id="keo7LRHrqXR6IUppqkBO-19" value="1" style="edgeLabel;resizable=0;html=1;align=left;verticalAlign=top;fontSize=12;" connectable="0" vertex="1" parent="keo7LRHrqXR6IUppqkBO-18">
          <mxGeometry x="-1" relative="1" as="geometry">
            <mxPoint x="-20" as="offset" />
          </mxGeometry>
        </mxCell>
        <mxCell id="keo7LRHrqXR6IUppqkBO-20" value="0..n" style="edgeLabel;resizable=0;html=1;align=right;verticalAlign=top;fontSize=12;" connectable="0" vertex="1" parent="keo7LRHrqXR6IUppqkBO-18">
          <mxGeometry x="1" relative="1" as="geometry">
            <mxPoint x="30" y="2" as="offset" />
          </mxGeometry>
        </mxCell>
      </root>
    </mxGraphModel>
  </diagram>
</mxfile>
